<svg width="19" height="25" viewBox="0 0 19 25" fill="none" xmlns="http://www.w3.org/2000/svg">
<path d="M9.49997 0C4.50754 0 0.445923 4.06162 0.445923 9.054C0.445923 15.2497 8.54841 24.3454 8.89338 24.7295C9.21741 25.0904 9.78313 25.0898 10.1066 24.7295C10.4515 24.3454 18.554 15.2497 18.554 9.054C18.5539 4.06162 14.4924 0 9.49997 0ZM9.49997 13.6093C6.98816 13.6093 4.9447 11.5658 4.9447 9.054C4.9447 6.54219 6.98821 4.49873 9.49997 4.49873C12.0117 4.49873 14.0552 6.54224 14.0552 9.05405C14.0552 11.5659 12.0117 13.6093 9.49997 13.6093Z" fill="#0D4C93"/>
</svg>
